:SAMPLES-PER-SECOND 30
:FULLY-SPECIFIED
:DEGREES
47
root  20.4761 31.7266 -9.94476 47.7685 0.537888 -3.17415
RightUpLeg  -66.1698 6.84736 0.0506379
RightLeg  59.9534 1.58811 2.47087
RightFoot  -45.1207 -0.403889 -0.303994
RightToes  15.9149 0.0183157 0.154122
Spine  19.9746 2.44305 3.79198
Spine1  -0.0263474 0.596182 4.60087
HEad  23.3561 -10.2088 -8.24302
LeftShoulder1  -7.76503e-019 -2.42657e-020 -1.34036e-021
LeftArm  -13.3258 25.5433 -75.2068
LeftForeArm  6.33674 -55.6954 -16.127
LeftHand  6.08268 43.247 17.6373
RightShoulder  7.45443e-017 -2.42657e-020 1.96277e-018
RightArm  -22.3194 -19.1917 56.4184
RightForeArm  -3.61757 53.0664 15.3431
RightHand  -12.147 27.8395 -40.7518
LeftUpLeg  -67.6912 -3.4259 4.90669
LeftLeg  61.9391 -10.704 -20.2667
LeftFoot  -19.3682 0.287169 2.43496
LeftToes  61.4461 1.06988e-006 1.21085e-007
48
root  20.4713 27.4974 -12.3838 35.972 3.34988 1.71227
RightUpLeg  -64.9429 3.44746 2.75611
RightLeg  89.9449 0.783189 -14.1093
RightFoot  -40.9783 0.310874 2.23898
RightToes  -32.5421 -0.161813 -0.26924
Spine  35.2938 -0.724228 1.83358
Spine1  -7.91033 0.223564 3.81138
HEad  15.8072 -11.4663 -2.73889
LeftShoulder1  -7.76503e-019 -2.42657e-020 -1.34036e-021
LeftArm  -20.0416 14.1755 -77.2325
LeftForeArm  9.13649 -47.1943 -11.457
LeftHand  9.42093 52.8705 20.9213
RightShoulder  7.45443e-017 -2.42657e-020 1.96277e-018
RightArm  -32.2862 -8.33489 64.0981
RightForeArm  -0.316198 49.1528 13.0343
RightHand  -14.0683 30.5397 -43.3076
LeftUpLeg  -69.726 -8.19001 1.41005
LeftLeg  81.8484 -3.1239 -24.7871
LeftFoot  14.4418 -0.830789 3.24061
LeftToes  62.2341 1.06988e-006 1.21085e-007
49
root  19.7919 26.3036 -14.0071 17.6365 3.28331 2.39249
RightUpLeg  -56.8598 -1.24869 6.48279
RightLeg  106.425 5.66874 -15.5287
RightFoot  -33.3443 0.277337 2.59536
RightToes  -30.3482 -0.146326 -0.254379
Spine  60.8994 -0.430092 0.339411
Spine1  -15.6267 0.824297 6.69913
HEad  11.6042 -10.3737 -3.26448
LeftShoulder1  -7.76503e-019 -2.42657e-020 -1.34036e-021
LeftArm  -14.2472 7.8006 -76.3987
LeftForeArm  7.52481 -43.8075 -10.2362
LeftHand  9.41299 52.3617 21.1559
RightShoulder  7.45443e-017 -2.42657e-020 1.96277e-018
RightArm  -22.0555 -1.20608 62.7562
RightForeArm  -2.35474 46.2172 11.866
RightHand  -12.7625 28.5408 -41.8095
LeftUpLeg  -63.37 2.39366 -7.95483
LeftLeg  105.253 -4.68586 13.8807
LeftFoot  -22.1494 -0.0829469 -2.28148
LeftToes  -42.5468 1.06988e-006 1.21085e-007
50
root  19.6724 24.661 -15.1437 13.0577 5.21586 3.10749
RightUpLeg  -57.328 -8.56588 6.02771
RightLeg  114.242 4.89168 -9.02447
RightFoot  -36.7852 0.122686 1.65722
RightToes  -28.84 -0.136015 -0.243823
Spine  64.196 -1.70601 0.364773
Spine1  -15.4934 0.571814 6.69632
HEad  16.5923 -10.8524 -4.98094
LeftShoulder1  -7.76503e-019 -2.42657e-020 -1.34036e-021
LeftArm  -9.31702 5.3394 -77.8224
LeftForeArm  15.9955 -46.1186 -10.5186
LeftHand  8.72021 52.9383 19.4073
RightShoulder  7.45443e-017 -2.42657e-020 1.96277e-018
RightArm  -12.9209 1.92998 67.7233
RightForeArm  7.45898 45.117 10.7436
RightHand  -11.9055 31.5246 -36.2061
LeftUpLeg  -62.6396 6.87078 -7.01478
LeftLeg  113.739 -3.07645 5.71329
LeftFoot  -29.0735 0.0113498 -1.04925
LeftToes  -39.6448 1.06988e-006 1.21085e-007
51
root  19.47 23.3318 -15.8033 11.7726 7.38986 2.4939
RightUpLeg  -56.4802 -10.9749 6.20261
RightLeg  117.926 2.49468 -3.58776
RightFoot  -42.9816 -0.15065 0.512753
RightToes  -26.6283 -0.121406 -0.227863
Spine  61.57 -2.82597 2.85693
Spine1  -14.5384 0.418751 5.21404
HEad  21.2676 -13.5902 -6.21757
LeftShoulder1  -7.76503e-019 -2.42657e-020 -1.34036e-021
LeftArm  -7.97173 7.30421 -80.1425
LeftForeArm  13.5191 -48.6855 -11.7715
LeftHand  8.35532 50.3931 19.8009
RightShoulder  7.45443e-017 -2.42657e-020 1.96277e-018
RightArm  -13.4314 -2.96904 74.9108
RightForeArm  10.3703 49.9751 12.614
RightHand  -13.3582 31.6185 -40.1735
LeftUpLeg  -64.1103 10.2533 -6.45438
LeftLeg  117.511 -3.47403 5.54095
LeftFoot  -33.8914 -0.00973439 -1.0759
LeftToes  -40.4852 1.06988e-006 1.21085e-007
52
root  19.2461 22.8386 -16.2107 10.121 9.22808 2.85745
RightUpLeg  -55.7824 -11.1081 6.58631
RightLeg  120.031 3.90635 -5.51729
RightFoot  -44.4316 -0.0035382 1.02008
RightToes  -29.0656 -0.13754 -0.245419
Spine  59.4353 -3.04726 4.02959
Spine1  -14.1622 0.445838 4.67414
HEad  20.4115 -14.4891 -5.34446
LeftShoulder1  -7.76503e-019 -2.42657e-020 -1.34036e-021
LeftArm  -8.30142 10.264 -82.1478
LeftForeArm  11.9224 -50.4639 -12.7178
LeftHand  9.31684 52.2286 21.0162
RightShoulder  7.45443e-017 -2.42657e-020 1.96277e-018
RightArm  -15.3593 -9.4103 78.6706
RightForeArm  6.18428 53.8852 15.0261
RightHand  -13.2781 30.3569 -41.2823
LeftUpLeg  -64.4178 8.89901 -6.88925
LeftLeg  119.809 -4.2647 6.30349
LeftFoot  -34.4558 -0.0466165 -1.24645
LeftToes  -34.8977 1.06988e-006 1.21085e-007
53
root  19.0553 22.0822 -16.3454 17.875 8.90954 3.22013
RightUpLeg  -67.0142 -6.91094 8.72955
RightLeg  122.857 4.55286 -5.84377
RightFoot  -43.9087 0.0349647 1.15609
RightToes  -28.4673 -0.13351 -0.241174
Spine  44.1966 -0.550085 3.94891
Spine1  -8.25893 0.635519 4.88131
HEad  18.5876 -15.5801 -4.60411
LeftShoulder1  -7.76503e-019 -2.42657e-020 -1.34036e-021
LeftArm  -6.50752 9.88094 -82.9253
LeftForeArm  12.216 -46.8463 -11.0866
LeftHand  9.21187 53.1836 20.3301
RightShoulder  7.45443e-017 -2.42657e-020 1.96277e-018
RightArm  -16.3556 -10.4241 80.1151
RightForeArm  5.03629 49.2367 12.6766
RightHand  -12.7394 29.6914 -40.4554
LeftUpLeg  -75.1535 7.05593 -8.67807
LeftLeg  121.904 -5.6016 7.76157
LeftFoot  -33.3624 -0.1118 -1.60998
LeftToes  -37.1511 1.06988e-006 1.21085e-007
54
root  18.7725 22.2624 -16.3744 23.4546 10.1624 3.70553
RightUpLeg  -73.1141 -4.73336 9.86438
RightLeg  121.808 6.04369 -8.27276
RightFoot  -43.0716 0.200682 1.74993
RightToes  -30.8872 -0.150077 -0.258084
Spine  31.0015 -0.476309 2.76685
Spine1  -5.0208 0.324925 6.1359
HEad  19.7301 -15.5401 -5.17126
LeftShoulder1  -7.76503e-019 -2.42657e-020 -1.34036e-021
LeftArm  -5.65103 13.1024 -82.6728
LeftForeArm  13.06 -42.9173 -9.53874
LeftHand  8.85238 52.0315 20.112
RightShoulder  7.45443e-017 -2.42657e-020 1.96277e-018
RightArm  -16.157 -13.6891 80.0179
RightForeArm  7.82277 43.7689 10.2079
RightHand  -11.3615 28.4889 -37.6281
LeftUpLeg  -81.3187 4.84156 -8.97678
LeftLeg  120.922 -5.17373 7.41362
LeftFoot  -32.1239 -0.0710514 -1.44423
LeftToes  -31.6686 1.06988e-006 1.21085e-007
